<?xml version="1.0" encoding="utf-8"?>
<!-- Generator: Adobe Illustrator 21.0.0, SVG Export Plug-In . SVG Version: 6.00 Build 0)  -->
<svg version="1.1" id="Layer_1" xmlns="http://www.w3.org/2000/svg" xmlns:xlink="http://www.w3.org/1999/xlink" x="0px" y="0px"
	 viewBox="0 0 233.9 61.9" style="enable-background:new 0 0 233.9 61.9;" xml:space="preserve">
<style type="text/css">
	.st0{fill:#766E65;}
	.st1{fill:#809DAC;}
	.st2{enable-background:new    ;}
	.st3{fill:#606060;}
</style>
<title>Asset 1</title>
<g id="Layer_2">
	<g id="Layer_1-2">
		<g id="Layer_2-2">
			<g id="Layer_1-2-2">
				<g>
					<path class="st0" d="M123.5,2v23.2h19V2h6.6v21.9c0,2.6-0.5,4.4-1.5,5.3c-1,0.9-2.9,1.4-5.7,1.4h-18c-2.8,0-4.6-0.5-5.6-1.4
						c-1-0.9-1.5-2.7-1.5-5.3V2H123.5z"/>
				</g>
				<g>
					<path class="st0" d="M99.3,30.6V7.4h-19v23.2h-6.6V8.8c0-2.6,0.5-4.4,1.5-5.3S78.1,2,80.9,2h18.1c2.8,0,4.6,0.5,5.6,1.4
						s1.5,2.7,1.5,5.4v21.8H99.3z"/>
				</g>
				<g>
					<path class="st0" d="M158.3,8.8c0-2.6,0.5-4.4,1.5-5.3s2.8-1.4,5.6-1.5h21c2.8,0,4.6,0.5,5.6,1.4s1.5,2.7,1.5,5.3v15.1
						c0,2.6-0.5,4.4-1.5,5.3c-1,0.9-2.8,1.4-5.6,1.4h-21c-2.8,0-4.6-0.5-5.6-1.4s-1.5-2.7-1.5-5.3L158.3,8.8z M165,25.2h21.9V7.2
						H165V25.2z"/>
				</g>
				<g>
					<path class="st0" d="M208.7,7v6.1h17.8c2.8,0,4.7,0.5,5.7,1.4c1,1,1.5,2.7,1.5,5.3v3.9c0,2.6-0.5,4.4-1.5,5.3
						c-1,1-2.9,1.4-5.7,1.4h-17.6c-4.1,0-7.1-2-7.1-4.6v-0.8h26.1v-6.5H210c-2.8,0-4.6-0.5-5.6-1.4s-1.5-2.7-1.5-5.3V8.8
						c0-2.6,0.5-4.4,1.5-5.3S207.2,2,210,2h16.2c6.1,0,7.1,2.7,7.1,4.4V7H208.7z"/>
				</g>
				<g>
					<path class="st1" d="M24.1,52.2c0.5,0,1-0.1,1.4-0.4l10.8-7c0.7-0.5,1.1-1.3,1.2-2.1v-27c0-1.2-0.8-2.2-2-2.4L19.1,9.6l6.1-4.3
						l17.3,4.3v25.1c-0.1,1.4,0.9,2.6,2.3,2.7c1.4,0.1,2.6-0.9,2.7-2.3c0-0.1,0-0.3,0-0.4v-27c0-1.1-0.8-2.2-1.9-2.4L25.3,0.1
						c-0.7-0.2-1.5,0-2.1,0.4L11.6,8.8c-1.1,0.8-1.4,2.4-0.6,3.5c0.4,0.5,0.9,0.9,1.5,1l19.9,4.4v23.7L26.6,45V24
						c0-1.2-0.8-2.2-2-2.5L3,17.1c-1.4-0.3-2.7,0.6-3,2c0,0.2,0,0.3,0,0.5v26.6c0.1,1.4,1.3,2.4,2.7,2.3c1.2-0.1,2.2-1.1,2.3-2.3
						V22.6L21.6,26v23.7C21.6,51,22.7,52.2,24.1,52.2"/>
				</g>
				<g class="st2">
					<path class="st3" d="M83.3,40.4v11.8h-1.9v-5.3h-5.6v5.3h-1.9V40.4h1.9v5h5.6v-5H83.3z"/>
					<path class="st3" d="M94.1,41c0.9,0.5,1.6,1.2,2.1,2.1c0.5,0.9,0.8,2,0.8,3.1s-0.3,2.2-0.8,3.1c-0.5,0.9-1.2,1.6-2.1,2.2
						c-0.9,0.5-1.9,0.8-3,0.8c-1.1,0-2.1-0.3-3-0.8c-0.9-0.5-1.6-1.2-2.1-2.2c-0.5-0.9-0.8-2-0.8-3.1s0.3-2.2,0.8-3.1
						c0.5-0.9,1.2-1.6,2.1-2.1c0.9-0.5,1.9-0.8,3-0.8C92.2,40.2,93.2,40.5,94.1,41z M89.1,42.5c-0.6,0.3-1.1,0.8-1.4,1.5
						c-0.3,0.6-0.5,1.4-0.5,2.3s0.2,1.6,0.5,2.3c0.3,0.6,0.8,1.1,1.4,1.5s1.3,0.5,2,0.5c0.7,0,1.4-0.2,2-0.5c0.6-0.3,1-0.8,1.4-1.5
						c0.3-0.6,0.5-1.4,0.5-2.3s-0.2-1.6-0.5-2.3c-0.3-0.6-0.8-1.1-1.4-1.5c-0.6-0.3-1.3-0.5-2-0.5C90.3,42,89.7,42.2,89.1,42.5z"/>
					<path class="st3" d="M111.1,40.6v11.6h-1.9v-8.7l-3.4,8.7h-1.7l-3.4-8.7v8.7h-1.9V40.6h2.3l3.8,9.3l3.8-9.3H111.1z"/>
					<path class="st3" d="M115.3,41.9v3.6h4.4V47h-4.4v3.7h4.9v1.6h-6.8V40.4h6.8v1.5H115.3z"/>
					<path class="st3" d="M132.9,49.6h-5l-0.9,2.6h-2l4.3-11.6h2.2l4.3,11.6h-2L132.9,49.6z M132.4,48.2l-2-5.5l-2,5.5H132.4z"/>
					<path class="st3" d="M139.1,40.4v7c0,1,0.2,1.8,0.7,2.3c0.5,0.5,1.1,0.8,1.9,0.8c0.8,0,1.5-0.3,1.9-0.8s0.7-1.3,0.7-2.3v-7h1.9
						v7c0,1.6-0.4,2.8-1.3,3.7c-0.8,0.8-1.9,1.2-3.3,1.2c-1.4,0-2.5-0.4-3.3-1.2c-0.8-0.8-1.2-2.1-1.2-3.7v-7H139.1z"/>
					<path class="st3" d="M156.1,40.4v1.5h-3.3v10.3h-1.9V41.9h-3.3v-1.5H156.1z"/>
					<path class="st3" d="M166,41c0.9,0.5,1.6,1.2,2.1,2.1c0.5,0.9,0.8,2,0.8,3.1s-0.3,2.2-0.8,3.1c-0.5,0.9-1.2,1.6-2.1,2.2
						c-0.9,0.5-1.9,0.8-3,0.8c-1.1,0-2.1-0.3-3-0.8c-0.9-0.5-1.6-1.2-2.1-2.2c-0.5-0.9-0.8-2-0.8-3.1s0.3-2.2,0.8-3.1
						c0.5-0.9,1.2-1.6,2.1-2.1c0.9-0.5,1.9-0.8,3-0.8C164.1,40.2,165.1,40.5,166,41z M161,42.5c-0.6,0.3-1.1,0.8-1.4,1.5
						c-0.3,0.6-0.5,1.4-0.5,2.3s0.2,1.6,0.5,2.3c0.3,0.6,0.8,1.1,1.4,1.5c0.6,0.3,1.3,0.5,2,0.5c0.7,0,1.4-0.2,2-0.5
						c0.6-0.3,1-0.8,1.4-1.5c0.3-0.6,0.5-1.4,0.5-2.3s-0.2-1.6-0.5-2.3c-0.3-0.6-0.8-1.1-1.4-1.5c-0.6-0.3-1.3-0.5-2-0.5
						C162.3,42,161.6,42.2,161,42.5z"/>
					<path class="st3" d="M183,40.6v11.6h-1.9v-8.7l-3.4,8.7h-1.7l-3.4-8.7v8.7h-1.9V40.6h2.3l3.8,9.3l3.8-9.3H183z"/>
					<path class="st3" d="M192.4,49.6h-5l-0.9,2.6h-2l4.4-11.6h2.2l4.3,11.6h-2L192.4,49.6z M191.8,48.2l-2-5.5l-2,5.5H191.8z"/>
					<path class="st3" d="M204.3,40.4v1.5H201v10.3h-1.9V41.9h-3.3v-1.5H204.3z"/>
					<path class="st3" d="M207.6,40.4v11.8h-1.9V40.4H207.6z"/>
					<path class="st3" d="M218.4,41c0.9,0.5,1.6,1.2,2.1,2.1c0.5,0.9,0.8,2,0.8,3.1s-0.3,2.2-0.8,3.1c-0.5,0.9-1.2,1.6-2.1,2.2
						c-0.9,0.5-1.9,0.8-3,0.8c-1.1,0-2.1-0.3-3-0.8c-0.9-0.5-1.6-1.2-2.1-2.2c-0.5-0.9-0.8-2-0.8-3.1s0.3-2.2,0.8-3.1
						c0.5-0.9,1.2-1.6,2.1-2.1c0.9-0.5,1.9-0.8,3-0.8C216.5,40.2,217.5,40.5,218.4,41z M213.4,42.5c-0.6,0.3-1.1,0.8-1.4,1.5
						c-0.3,0.6-0.5,1.4-0.5,2.3s0.2,1.6,0.5,2.3c0.3,0.6,0.8,1.1,1.4,1.5s1.3,0.5,2,0.5c0.7,0,1.4-0.2,2-0.5s1-0.8,1.4-1.5
						c0.3-0.6,0.5-1.4,0.5-2.3s-0.2-1.6-0.5-2.3c-0.3-0.6-0.8-1.1-1.4-1.5s-1.3-0.5-2-0.5C214.7,42,214,42.2,213.4,42.5z"/>
					<path class="st3" d="M232.7,52.2h-1.9l-5.7-8.7v8.7h-1.9V40.4h1.9l5.7,8.8v-8.8h1.9V52.2z"/>
				</g>
			</g>
		</g>
	</g>
</g>
</svg>
